<svg class="ldi-ldnfo3" width="200px"  height="200px"  xmlns="http://www.w3.org/2000/svg" xmlns:xlink="http://www.w3.org/1999/xlink" viewBox="0 0 100 100" preserveAspectRatio="xMidYMid" style="background: none;"><!--?xml version="1.0" encoding="utf-8"?--><!--Generator: Adobe Illustrator 21.0.0, SVG Export Plug-In . SVG Version: 6.00 Build 0)--><svg version="1.1" id="Layer_1" xmlns="http://www.w3.org/2000/svg" xmlns:xlink="http://www.w3.org/1999/xlink" x="0px" y="0px" viewBox="0 0 100 100" style="transform-origin: 50px 50px 0px;" xml:space="preserve"><g style="transform-origin: 50px 50px 0px;"><g style="transform-origin: 50px 50px 0px; transform: scale(0.6);"><g style="transform-origin: 50px 50px 0px;"><g><style type="text/css" class="ld ld-breath" style="transform-origin: 50px 50px 0px; animation-duration: 1s; animation-delay: -1s; animation-direction: normal;">.st0{fill:#E0E0E0;} .st1{fill:#666766;} .st2{fill:#010101;}</style><g class="ld ld-breath" style="transform-origin: 50px 50px 0px; animation-duration: 1s; animation-delay: -0.928571s; animation-direction: normal;"><path class="st0" d="M77.5,28.8L61.2,12.5C60,11.3,59,10.8,58,10.8H22.6c-0.9,0-1.7,0.8-1.7,1.7v75.1c0,0.9,0.8,1.7,1.7,1.7h54.8 c0.9,0,1.7-0.8,1.7-1.7V32C79.1,31,78.6,29.9,77.5,28.8z" fill="rgb(224, 224, 224)" style="fill: rgb(224, 224, 224);"></path></g><g class="ld ld-breath" style="transform-origin: 50px 50px 0px; animation-duration: 1s; animation-delay: -0.857143s; animation-direction: normal;"><path class="st1" d="M62.4,28.8h15.1L61.2,12.5v15.1C61.2,28.2,61.8,28.8,62.4,28.8z" fill="rgb(102, 103, 102)" style="fill: rgb(102, 103, 102);"></path></g><g class="ld ld-breath" style="transform-origin: 50px 50px 0px; animation-duration: 1s; animation-delay: -0.785714s; animation-direction: normal;"><path class="st2" d="M62.3,8.3c-0.5-0.5-1.2-0.8-1.9-0.8H22.6c-2.7,0-5,2.2-5,5v75.1c0,2.7,2.2,5,5,5h54.8c2.7,0,5-2.2,5-5V31.1 c0-1.8-0.7-3.4-1.9-4.7L62.3,8.3z M61.2,12.5l16.2,16.2H62.4c-0.7,0-1.2-0.5-1.2-1.2 M79.1,87.5c0,0.9-0.8,1.7-1.7,1.7H22.6 c-0.9,0-1.7-0.8-1.7-1.7V12.5c0-0.9,0.8-1.7,1.7-1.7H58v16.8c0,2.5,2,4.5,4.5,4.5h16.7V87.5z" fill="rgb(1, 1, 1)" style="fill: rgb(1, 1, 1);"></path></g><g class="ld ld-breath" style="transform-origin: 50px 50px 0px; animation-duration: 1s; animation-delay: -0.714286s; animation-direction: normal;"><path d="M28.133 58.005L28.133 84.215L32.095 84.215L32.095 73.815L34.800 73.815C39.219 73.815 42.190 70.691 42.190 65.396C42.190 61.815 39.943 58.005 34.571 58.005ZM32.095 61.853L34.571 61.853C37.771 61.853 38.190 64.596 38.190 65.510C38.190 66.615 38.114 69.700 34.343 69.700L32.095 69.700ZM44.324 84.215L50.762 84.215C56.133 84.329 58.381 80.672 58.381 76.862L58.381 65.396C58.381 61.472 56.133 58.005 50.762 58.005L44.324 58.005ZM48.209 61.853L50.838 61.853C54.038 61.853 54.457 64.405 54.457 65.510L54.457 76.748C54.457 77.815 54.038 80.367 50.838 80.367L48.209 80.367ZM74.343 73.015L74.343 69.129L65.924 69.129L65.924 61.967L75.753 61.967L75.753 58.005L61.695 58.005L61.695 84.215L65.924 84.215L65.924 73.015Z" fill="rgb(0, 0, 0)" style="fill: rgb(0, 0, 0);"></path></g><metadata xmlns:d="https://loading.io/stock/" class="ld ld-breath" style="transform-origin: 50px 50px 0px; animation-duration: 1s; animation-delay: -0.642857s; animation-direction: normal;">
<d:name class="ld ld-breath" style="transform-origin: 50px 50px 0px; animation-duration: 1s; animation-delay: -0.571429s; animation-direction: normal;">pdf</d:name>
<d:tags class="ld ld-breath" style="transform-origin: 50px 50px 0px; animation-duration: 1s; animation-delay: -0.5s; animation-direction: normal;">type,postfix,suffix,data,pdf,file format</d:tags>
<d:license class="ld ld-breath" style="transform-origin: 50px 50px 0px; animation-duration: 1s; animation-delay: -0.428571s; animation-direction: normal;">cc-by</d:license>
<d:slug class="ld ld-breath" style="transform-origin: 50px 50px 0px; animation-duration: 1s; animation-delay: -0.357143s; animation-direction: normal;">ldnfo3</d:slug>
</metadata></g></g></g></g><style type="text/css" class="ld ld-breath" style="transform-origin: 50px 50px 0px; animation-duration: 1s; animation-delay: -0.285714s; animation-direction: normal;">@keyframes ld-breath {
  0% {
    -webkit-transform: scale(0.86);
    transform: scale(0.86);
  }
  50% {
    -webkit-transform: scale(1.06);
    transform: scale(1.06);
  }
  100% {
    -webkit-transform: scale(0.86);
    transform: scale(0.86);
  }
}
@-webkit-keyframes ld-breath {
  0% {
    -webkit-transform: scale(0.86);
    transform: scale(0.86);
  }
  50% {
    -webkit-transform: scale(1.06);
    transform: scale(1.06);
  }
  100% {
    -webkit-transform: scale(0.86);
    transform: scale(0.86);
  }
}
.ld.ld-breath {
  -webkit-animation: ld-breath 1s infinite;
  animation: ld-breath 1s infinite;
}
</style></svg></svg>