<svg class="ldi-o1bv70" width="200px"  height="200px"  xmlns="http://www.w3.org/2000/svg" xmlns:xlink="http://www.w3.org/1999/xlink" viewBox="0 0 100 100" preserveAspectRatio="xMidYMid" style="background: none;"><!--?xml version="1.0" encoding="utf-8"?--><!--Generator: Adobe Illustrator 21.0.0, SVG Export Plug-In . SVG Version: 6.00 Build 0)--><svg version="1.1" id="圖層_1" xmlns="http://www.w3.org/2000/svg" xmlns:xlink="http://www.w3.org/1999/xlink" x="0px" y="0px" viewBox="0 0 100 100" style="transform-origin: 50px 50px 0px;" xml:space="preserve"><g style="transform-origin: 50px 50px 0px;"><g style="transform-origin: 50px 50px 0px; transform: scale(0.6);"><g style="transform-origin: 50px 50px 0px;"><g><style type="text/css" class="ld ld-breath" style="transform-origin: 50px 50px 0px; animation-duration: 1s; animation-delay: -1s; animation-direction: normal;">.st0{fill:#D1D1D1;} .st1{fill:#454545;} .st2{fill:#464646;} .st3{fill:#474747;} .st4{fill:#494949;} .st5{fill:#D1D2D1;}</style><g class="ld ld-breath" style="transform-origin: 50px 50px 0px; animation-duration: 1s; animation-delay: -0.9375s; animation-direction: normal;"><path class="st0" d="M45.833,67.723c-4.438,0-8.048-3.611-8.048-8.048v-17.5c0-0.456-0.385-0.841-0.841-0.841H26.848 c-3.828,0-5.153-2.201-5.545-3.148c-0.392-0.946-1.012-3.44,1.695-6.147l21.311-21.311C45.826,9.212,47.847,8.377,50,8.377 c2.153,0,4.174,0.835,5.691,2.351L77.002,32.04c2.707,2.707,2.087,5.2,1.695,6.147c-0.392,0.946-1.717,3.148-5.545,3.148H63.055 c-0.456,0-0.841,0.385-0.841,0.841v17.5c0,4.437-3.61,8.048-8.048,8.048H45.833L45.833,67.723z" fill="rgb(209, 209, 209)" style="fill: rgb(209, 209, 209);"></path></g><g style="transform-origin: 50px 50px 0px;"><g><g class="ld ld-breath" style="transform-origin: 50px 50px 0px; animation-duration: 1s; animation-delay: -0.875s; animation-direction: normal;"><path class="st0" d="M16.347,91.623c-4.878,0-8.847-3.969-8.847-8.847V61.927c0-4.878,3.968-8.847,8.847-8.847 s8.847,3.969,8.847,8.847V73.93h49.613V61.927c0-4.878,3.969-8.847,8.847-8.847c4.878,0,8.847,3.969,8.847,8.847v20.849 c0,4.878-3.968,8.847-8.847,8.847H16.347z" fill="rgb(209, 209, 209)" style="fill: rgb(209, 209, 209);"></path></g></g></g><g class="ld ld-breath" style="transform-origin: 50px 50px 0px; animation-duration: 1s; animation-delay: -0.8125s; animation-direction: normal;"><path class="st2" d="M36.944,37.731c2.444,0,4.445,2,4.445,4.445v17.5c0,2.444,2,4.444,4.445,4.444h8.333 c2.444,0,4.444-2,4.444-4.444v-17.5c0-2.444,2-4.445,4.445-4.445h10.097c2.444,0,3.03-1.414,1.301-3.143L53.143,13.277 c-1.729-1.728-4.557-1.728-6.285,0L25.546,34.588c-1.728,1.728-1.143,3.143,1.302,3.143H36.944z" fill="rgb(70, 70, 70)" style="fill: rgb(70, 70, 70);"></path></g><g style="transform-origin: 50px 50px 0px;"><g><g class="ld ld-breath" style="transform-origin: 50px 50px 0px; animation-duration: 1s; animation-delay: -0.75s; animation-direction: normal;"><path class="st2" d="M83.653,88.02H16.347c-2.895,0-5.243-2.348-5.243-5.243V61.927c0-2.895,2.348-5.243,5.243-5.243 c2.896,0,5.243,2.348,5.243,5.243v15.607H78.41V61.927c0-2.895,2.348-5.243,5.243-5.243c2.895,0,5.243,2.348,5.243,5.243v20.849 C88.896,85.672,86.549,88.02,83.653,88.02z" fill="rgb(70, 70, 70)" style="fill: rgb(70, 70, 70);"></path></g></g></g><metadata xmlns:d="https://loading.io/stock/" class="ld ld-breath" style="transform-origin: 50px 50px 0px; animation-duration: 1s; animation-delay: -0.6875s; animation-direction: normal;">
<d:name class="ld ld-breath" style="transform-origin: 50px 50px 0px; animation-duration: 1s; animation-delay: -0.625s; animation-direction: normal;">upload</d:name>
<d:tags class="ld ld-breath" style="transform-origin: 50px 50px 0px; animation-duration: 1s; animation-delay: -0.5625s; animation-direction: normal;">publish,send,deliver,give,provide,upload,map</d:tags>
<d:license class="ld ld-breath" style="transform-origin: 50px 50px 0px; animation-duration: 1s; animation-delay: -0.5s; animation-direction: normal;">cc0</d:license>
<d:slug class="ld ld-breath" style="transform-origin: 50px 50px 0px; animation-duration: 1s; animation-delay: -0.4375s; animation-direction: normal;">o1bv70</d:slug>
</metadata></g></g></g></g><style type="text/css" class="ld ld-breath" style="transform-origin: 50px 50px 0px; animation-duration: 1s; animation-delay: -0.375s; animation-direction: normal;">@keyframes ld-breath {
  0% {
    -webkit-transform: scale(0.86);
    transform: scale(0.86);
  }
  50% {
    -webkit-transform: scale(1.06);
    transform: scale(1.06);
  }
  100% {
    -webkit-transform: scale(0.86);
    transform: scale(0.86);
  }
}
@-webkit-keyframes ld-breath {
  0% {
    -webkit-transform: scale(0.86);
    transform: scale(0.86);
  }
  50% {
    -webkit-transform: scale(1.06);
    transform: scale(1.06);
  }
  100% {
    -webkit-transform: scale(0.86);
    transform: scale(0.86);
  }
}
.ld.ld-breath {
  -webkit-animation: ld-breath 1s infinite;
  animation: ld-breath 1s infinite;
}
</style></svg></svg>